<svg width="184" height="216" viewBox="0 0 184 216" fill="none" xmlns="http://www.w3.org/2000/svg">
<path d="M182.978 199.135L178.366 185.615C169.73 160.159 146.354 142.842 119.677 141.711C117.326 143.52 114.839 145.103 112.307 146.459C108.509 156.497 95.6675 159.21 88.1165 151.523C79.2091 150.754 71.0704 147.228 63.9716 141.711C37.3399 142.842 13.9636 160.204 5.2823 185.615L0.670347 199.135C-0.640893 203.023 -0.00788093 207.319 2.38852 210.665C4.78493 214.011 8.62822 216 12.7428 216H170.86C174.975 216 178.818 214.011 181.215 210.665C183.656 207.319 184.289 203.023 182.978 199.135Z" fill="#111111"/>
<path d="M109.458 131.402C124.922 120.551 135.728 96.4962 135.728 73.3008C135.728 7.33187 47.9653 7.37708 47.9653 73.3008C47.9653 101.515 63.9263 130.86 84.8157 136.421C86.8504 130.724 92.231 126.564 98.6064 126.564C102.902 126.564 106.745 128.463 109.458 131.402Z" fill="#111111"/>
<path d="M28.7038 100.837C30.8742 109.383 42.7206 107.031 42.7206 99.1187C42.7206 67.3777 44.2579 64.4387 40.0076 61.0023C49.7289 1.09218 133.513 1.54433 143.686 61.0023C139.436 64.4387 140.973 67.4229 140.973 99.1187C140.973 101.606 142.33 103.685 144.229 104.997C144.229 129.684 134.236 128.237 104.123 136.24C99.4656 131.176 91.146 134.477 91.146 141.304C91.146 149.85 103.399 151.84 105.751 143.249C130.076 136.783 151.418 134.748 151.418 110.468V105.494C153.226 104.545 154.493 102.917 155.035 100.882C178.457 100.385 178.457 65.2978 155.035 64.8004C154.538 62.9014 153.362 61.3188 151.689 60.3693C152.277 53.1801 150.83 43.7301 146.67 34.5966C117.959 -24.59 33.3158 -1.43987 31.9593 55.893C31.7785 57.8372 31.9141 59.1937 32.0498 60.3241C30.3768 61.2736 29.156 62.8561 28.7038 64.7552C18.8921 64.9812 10.9795 72.9843 10.9795 82.8412C10.9795 92.6982 18.8921 100.656 28.7038 100.837Z" fill="#111111"/>
</svg>
